<svg xmlns="http://www.w3.org/2000/svg" width="43.333" height="47.333" viewBox="0 0 43.333 47.333"><defs><style>.a{fill:#f5efef;}</style></defs><g transform="translate(0 4)"><rect class="a" width="5.417" height="5.417" transform="translate(10.833 10.833)"/><rect class="a" width="5.417" height="5.417" transform="translate(10.833 18.958)"/><rect class="a" width="5.417" height="5.417" transform="translate(10.833 27.083)"/><rect class="a" width="10.833" height="5.417" transform="translate(21.667 27.083)"/><path class="a" d="M40.625,0H2.708A2.707,2.707,0,0,0,0,2.708V40.625a2.707,2.707,0,0,0,2.708,2.708H40.625a2.707,2.707,0,0,0,2.708-2.708V2.708A2.707,2.707,0,0,0,40.625,0ZM37.917,37.917H5.417V5.417h32.5Z"/><rect class="a" width="10.833" height="5.417" transform="translate(21.667 18.958)"/><rect class="a" width="10.833" height="5.417" transform="translate(21.667 -4)"/></g></svg>